<?xml version="1.0" encoding="UTF-8" standalone="no"?>
<!DOCTYPE svg PUBLIC "-//W3C//DTD SVG 1.1//EN"
 "http://www.w3.org/Graphics/SVG/1.1/DTD/svg11.dtd">
<!-- Generated by graphviz version 2.36.0 (20140111.2315)
 -->
<!-- Title: unix Pages: 1 -->
<svg width="2570pt" height="116pt"
 viewBox="0.00 0.00 2570.00 116.00" xmlns="http://www.w3.org/2000/svg" xmlns:xlink="http://www.w3.org/1999/xlink">
<g id="graph0" class="graph" transform="scale(1 1) rotate(0) translate(4 112)">
<title>unix</title>
<polygon fill="white" stroke="none" points="-4,4 -4,-112 2566,-112 2566,4 -4,4"/>
<!-- 364DuchyC:2, E:0, S:2, D:0, G:1, P:0 Prop:100 -->
<g id="node1" class="node"><title>364DuchyC:2, E:0, S:2, D:0, G:1, P:0 Prop:100</title>
<ellipse fill="#b2dfee" stroke="#b2dfee" cx="1254" cy="-90" rx="181.001" ry="18"/>
<text text-anchor="middle" x="1254" y="-86.3" font-family="Times New Roman,serif" font-size="14.00">364DuchyC:2, E:0, S:2, D:0, G:1, P:0 Prop:100</text>
</g>
<!-- 365CopperC:2, E:0, S:2, D:0, G:1, P:0 Prop:9 -->
<g id="node2" class="node"><title>365CopperC:2, E:0, S:2, D:0, G:1, P:0 Prop:9</title>
<ellipse fill="#b2dfee" stroke="#b2dfee" cx="176" cy="-18" rx="176.177" ry="18"/>
<text text-anchor="middle" x="176" y="-14.3" font-family="Times New Roman,serif" font-size="14.00">365CopperC:2, E:0, S:2, D:0, G:1, P:0 Prop:9</text>
</g>
<!-- 364DuchyC:2, E:0, S:2, D:0, G:1, P:0 Prop:100&#45;&gt;365CopperC:2, E:0, S:2, D:0, G:1, P:0 Prop:9 -->
<g id="edge1" class="edge"><title>364DuchyC:2, E:0, S:2, D:0, G:1, P:0 Prop:100&#45;&gt;365CopperC:2, E:0, S:2, D:0, G:1, P:0 Prop:9</title>
<path fill="none" stroke="black" d="M1095.99,-81.1323C917.619,-71.897 618.794,-55.3593 362,-36 345.174,-34.7315 327.503,-33.2763 310.026,-31.7627"/>
<polygon fill="black" stroke="black" points="310.033,-28.25 299.766,-30.8657 309.424,-35.2234 310.033,-28.25"/>
</g>
<!-- 366SilverC:2, E:0, S:2, D:0, G:1, P:0 Prop:9 -->
<g id="node3" class="node"><title>366SilverC:2, E:0, S:2, D:0, G:1, P:0 Prop:9</title>
<ellipse fill="#b2dfee" stroke="#b2dfee" cx="540" cy="-18" rx="168.478" ry="18"/>
<text text-anchor="middle" x="540" y="-14.3" font-family="Times New Roman,serif" font-size="14.00">366SilverC:2, E:0, S:2, D:0, G:1, P:0 Prop:9</text>
</g>
<!-- 364DuchyC:2, E:0, S:2, D:0, G:1, P:0 Prop:100&#45;&gt;366SilverC:2, E:0, S:2, D:0, G:1, P:0 Prop:9 -->
<g id="edge2" class="edge"><title>364DuchyC:2, E:0, S:2, D:0, G:1, P:0 Prop:100&#45;&gt;366SilverC:2, E:0, S:2, D:0, G:1, P:0 Prop:9</title>
<path fill="none" stroke="black" d="M1130.04,-76.8469C1001.21,-64.217 800.488,-44.538 669.608,-31.7067"/>
<polygon fill="black" stroke="black" points="669.818,-28.2105 659.524,-30.718 669.135,-35.1771 669.818,-28.2105"/>
</g>
<!-- 367GoldC:2, E:0, S:2, D:0, G:1, P:0 Prop:9 -->
<g id="node4" class="node"><title>367GoldC:2, E:0, S:2, D:0, G:1, P:0 Prop:9</title>
<ellipse fill="#b2dfee" stroke="#b2dfee" cx="894" cy="-18" rx="167.053" ry="18"/>
<text text-anchor="middle" x="894" y="-14.3" font-family="Times New Roman,serif" font-size="14.00">367GoldC:2, E:0, S:2, D:0, G:1, P:0 Prop:9</text>
</g>
<!-- 364DuchyC:2, E:0, S:2, D:0, G:1, P:0 Prop:100&#45;&gt;367GoldC:2, E:0, S:2, D:0, G:1, P:0 Prop:9 -->
<g id="edge3" class="edge"><title>364DuchyC:2, E:0, S:2, D:0, G:1, P:0 Prop:100&#45;&gt;367GoldC:2, E:0, S:2, D:0, G:1, P:0 Prop:9</title>
<path fill="none" stroke="black" d="M1175.44,-73.7247C1118.14,-62.5825 1040.47,-47.4804 981.241,-35.9635"/>
<polygon fill="black" stroke="black" points="981.638,-32.4753 971.154,-34.0022 980.302,-39.3466 981.638,-32.4753"/>
</g>
<!-- 368EstateC:2, E:0, S:2, D:0, G:1, P:0 Prop:12 -->
<g id="node5" class="node"><title>368EstateC:2, E:0, S:2, D:0, G:1, P:0 Prop:12</title>
<ellipse fill="#b2dfee" stroke="#b2dfee" cx="1254" cy="-18" rx="174.252" ry="18"/>
<text text-anchor="middle" x="1254" y="-14.3" font-family="Times New Roman,serif" font-size="14.00">368EstateC:2, E:0, S:2, D:0, G:1, P:0 Prop:12</text>
</g>
<!-- 364DuchyC:2, E:0, S:2, D:0, G:1, P:0 Prop:100&#45;&gt;368EstateC:2, E:0, S:2, D:0, G:1, P:0 Prop:12 -->
<g id="edge4" class="edge"><title>364DuchyC:2, E:0, S:2, D:0, G:1, P:0 Prop:100&#45;&gt;368EstateC:2, E:0, S:2, D:0, G:1, P:0 Prop:12</title>
<path fill="none" stroke="black" d="M1254,-71.6966C1254,-63.9827 1254,-54.7125 1254,-46.1124"/>
<polygon fill="black" stroke="black" points="1257.5,-46.1043 1254,-36.1043 1250.5,-46.1044 1257.5,-46.1043"/>
</g>
<!-- 369DuchyC:2, E:0, S:2, D:0, G:1, P:0 Prop:20 -->
<g id="node6" class="node"><title>369DuchyC:2, E:0, S:2, D:0, G:1, P:0 Prop:20</title>
<ellipse fill="#b2dfee" stroke="#b2dfee" cx="1624" cy="-18" rx="176.177" ry="18"/>
<text text-anchor="middle" x="1624" y="-14.3" font-family="Times New Roman,serif" font-size="14.00">369DuchyC:2, E:0, S:2, D:0, G:1, P:0 Prop:20</text>
</g>
<!-- 364DuchyC:2, E:0, S:2, D:0, G:1, P:0 Prop:100&#45;&gt;369DuchyC:2, E:0, S:2, D:0, G:1, P:0 Prop:20 -->
<g id="edge5" class="edge"><title>364DuchyC:2, E:0, S:2, D:0, G:1, P:0 Prop:100&#45;&gt;369DuchyC:2, E:0, S:2, D:0, G:1, P:0 Prop:20</title>
<path fill="none" stroke="black" d="M1334.28,-73.811C1393.17,-62.6698 1473.17,-47.5352 1534.18,-35.9922"/>
<polygon fill="black" stroke="black" points="1535.02,-39.3971 1544.19,-34.0991 1533.71,-32.5191 1535.02,-39.3971"/>
</g>
<!-- 370ProvinceC:2, E:0, S:2, D:0, G:1, P:0 Prop:40 -->
<g id="node7" class="node"><title>370ProvinceC:2, E:0, S:2, D:0, G:1, P:0 Prop:40</title>
<ellipse fill="#b2dfee" stroke="#b2dfee" cx="2004" cy="-18" rx="185.35" ry="18"/>
<text text-anchor="middle" x="2004" y="-14.3" font-family="Times New Roman,serif" font-size="14.00">370ProvinceC:2, E:0, S:2, D:0, G:1, P:0 Prop:40</text>
</g>
<!-- 364DuchyC:2, E:0, S:2, D:0, G:1, P:0 Prop:100&#45;&gt;370ProvinceC:2, E:0, S:2, D:0, G:1, P:0 Prop:40 -->
<g id="edge6" class="edge"><title>364DuchyC:2, E:0, S:2, D:0, G:1, P:0 Prop:100&#45;&gt;370ProvinceC:2, E:0, S:2, D:0, G:1, P:0 Prop:40</title>
<path fill="none" stroke="black" d="M1381.23,-77.1255C1515.57,-64.5866 1726.71,-44.8803 1865.26,-31.9493"/>
<polygon fill="black" stroke="black" points="1865.89,-35.4057 1875.52,-30.9915 1865.24,-28.436 1865.89,-35.4057"/>
</g>
<!-- 371NothingC:2, E:0, S:2, D:0, G:1, P:0 Prop:1 -->
<g id="node8" class="node"><title>371NothingC:2, E:0, S:2, D:0, G:1, P:0 Prop:1</title>
<ellipse fill="#b2dfee" stroke="#b2dfee" cx="2385" cy="-18" rx="177.151" ry="18"/>
<text text-anchor="middle" x="2385" y="-14.3" font-family="Times New Roman,serif" font-size="14.00">371NothingC:2, E:0, S:2, D:0, G:1, P:0 Prop:1</text>
</g>
<!-- 364DuchyC:2, E:0, S:2, D:0, G:1, P:0 Prop:100&#45;&gt;371NothingC:2, E:0, S:2, D:0, G:1, P:0 Prop:1 -->
<g id="edge7" class="edge"><title>364DuchyC:2, E:0, S:2, D:0, G:1, P:0 Prop:100&#45;&gt;371NothingC:2, E:0, S:2, D:0, G:1, P:0 Prop:1</title>
<path fill="none" stroke="black" d="M1414.88,-81.6638C1602.85,-72.6988 1923.18,-56.2005 2198,-36 2215.05,-34.7465 2232.97,-33.2929 2250.68,-31.7739"/>
<polygon fill="black" stroke="black" points="2251.41,-35.2234 2261.07,-30.873 2250.81,-28.2496 2251.41,-35.2234"/>
</g>
</g>
</svg>
