<?xml version="1.0" encoding="UTF-8" standalone="no"?>
<!DOCTYPE svg PUBLIC "-//W3C//DTD SVG 1.1//EN"
 "http://www.w3.org/Graphics/SVG/1.1/DTD/svg11.dtd">
<!-- Generated by graphviz version 2.36.0 (20140111.2315)
 -->
<!-- Title: unix Pages: 1 -->
<svg width="2733pt" height="764pt"
 viewBox="0.00 0.00 2733.00 764.00" xmlns="http://www.w3.org/2000/svg" xmlns:xlink="http://www.w3.org/1999/xlink">
<g id="graph0" class="graph" transform="scale(1 1) rotate(0) translate(4 760)">
<title>unix</title>
<polygon fill="white" stroke="none" points="-4,4 -4,-760 2729,-760 2729,4 -4,4"/>
<!-- 0 Score:5.003502 Estates: 3 -->
<g id="node1" class="node"><title>0 Score:5.003502 Estates: 3</title>
<ellipse fill="#b2dfee" stroke="#b2dfee" cx="864" cy="-738" rx="111.21" ry="18"/>
<text text-anchor="middle" x="864" y="-734.3" font-family="Times New Roman,serif" font-size="14.00">0 Score:5.003502 Estates: 3</text>
</g>
<!-- 1C:5, E:0, S:0, D:0, G:0, P:0 Score:5.270180 Estates: 3 -->
<g id="node2" class="node"><title>1C:5, E:0, S:0, D:0, G:0, P:0 Score:5.270180 Estates: 3</title>
<ellipse fill="#b2dfee" stroke="#b2dfee" cx="209" cy="-666" rx="208.923" ry="18"/>
<text text-anchor="middle" x="209" y="-662.3" font-family="Times New Roman,serif" font-size="14.00">1C:5, E:0, S:0, D:0, G:0, P:0 Score:5.270180 Estates: 3</text>
</g>
<!-- 0 Score:5.003502 Estates: 3&#45;&gt;1C:5, E:0, S:0, D:0, G:0, P:0 Score:5.270180 Estates: 3 -->
<g id="edge1" class="edge"><title>0 Score:5.003502 Estates: 3&#45;&gt;1C:5, E:0, S:0, D:0, G:0, P:0 Score:5.270180 Estates: 3</title>
<path fill="none" stroke="black" d="M773.956,-727.377C662.997,-715.519 473.4,-695.256 344.747,-681.507"/>
<polygon fill="black" stroke="black" points="344.747,-677.987 334.432,-680.405 344.003,-684.948 344.747,-677.987"/>
</g>
<!-- 2C:4, E:1, S:0, D:0, G:0, P:0 Score:4.736823 Estates: 3 -->
<g id="node3" class="node"><title>2C:4, E:1, S:0, D:0, G:0, P:0 Score:4.736823 Estates: 3</title>
<ellipse fill="#b2dfee" stroke="#b2dfee" cx="646" cy="-666" rx="208.923" ry="18"/>
<text text-anchor="middle" x="646" y="-662.3" font-family="Times New Roman,serif" font-size="14.00">2C:4, E:1, S:0, D:0, G:0, P:0 Score:4.736823 Estates: 3</text>
</g>
<!-- 0 Score:5.003502 Estates: 3&#45;&gt;2C:4, E:1, S:0, D:0, G:0, P:0 Score:4.736823 Estates: 3 -->
<g id="edge2" class="edge"><title>0 Score:5.003502 Estates: 3&#45;&gt;2C:4, E:1, S:0, D:0, G:0, P:0 Score:4.736823 Estates: 3</title>
<path fill="none" stroke="black" d="M816.428,-721.725C784.25,-711.392 741.466,-697.654 706.815,-686.528"/>
<polygon fill="black" stroke="black" points="707.865,-683.189 697.273,-683.464 705.724,-689.854 707.865,-683.189"/>
</g>
<!-- 3C:3, E:2, S:0, D:0, G:0, P:0 Score:4.736823 Estates: 3 -->
<g id="node4" class="node"><title>3C:3, E:2, S:0, D:0, G:0, P:0 Score:4.736823 Estates: 3</title>
<ellipse fill="#b2dfee" stroke="#b2dfee" cx="1083" cy="-666" rx="208.923" ry="18"/>
<text text-anchor="middle" x="1083" y="-662.3" font-family="Times New Roman,serif" font-size="14.00">3C:3, E:2, S:0, D:0, G:0, P:0 Score:4.736823 Estates: 3</text>
</g>
<!-- 0 Score:5.003502 Estates: 3&#45;&gt;3C:3, E:2, S:0, D:0, G:0, P:0 Score:4.736823 Estates: 3 -->
<g id="edge3" class="edge"><title>0 Score:5.003502 Estates: 3&#45;&gt;3C:3, E:2, S:0, D:0, G:0, P:0 Score:4.736823 Estates: 3</title>
<path fill="none" stroke="black" d="M911.79,-721.725C944.116,-711.392 987.096,-697.654 1021.91,-686.528"/>
<polygon fill="black" stroke="black" points="1023.03,-689.842 1031.49,-683.464 1020.9,-683.175 1023.03,-689.842"/>
</g>
<!-- 4C:2, E:3, S:0, D:0, G:0, P:0 Score:5.270180 Estates: 3 -->
<g id="node5" class="node"><title>4C:2, E:3, S:0, D:0, G:0, P:0 Score:5.270180 Estates: 3</title>
<ellipse fill="#b2dfee" stroke="#b2dfee" cx="1520" cy="-666" rx="208.923" ry="18"/>
<text text-anchor="middle" x="1520" y="-662.3" font-family="Times New Roman,serif" font-size="14.00">4C:2, E:3, S:0, D:0, G:0, P:0 Score:5.270180 Estates: 3</text>
</g>
<!-- 0 Score:5.003502 Estates: 3&#45;&gt;4C:2, E:3, S:0, D:0, G:0, P:0 Score:5.270180 Estates: 3 -->
<g id="edge4" class="edge"><title>0 Score:5.003502 Estates: 3&#45;&gt;4C:2, E:3, S:0, D:0, G:0, P:0 Score:5.270180 Estates: 3</title>
<path fill="none" stroke="black" d="M953.839,-727.414C1064.99,-715.553 1255.3,-695.246 1384.28,-681.482"/>
<polygon fill="black" stroke="black" points="1384.66,-684.961 1394.24,-680.42 1383.92,-678.001 1384.66,-684.961"/>
</g>
<!-- 14Copper Score:4.499010 Estates: 3 -->
<g id="node6" class="node"><title>14Copper Score:4.499010 Estates: 3</title>
<ellipse fill="#b2dfee" stroke="#b2dfee" cx="640" cy="-594" rx="143.456" ry="18"/>
<text text-anchor="middle" x="640" y="-590.3" font-family="Times New Roman,serif" font-size="14.00">14Copper Score:4.499010 Estates: 3</text>
</g>
<!-- 3C:3, E:2, S:0, D:0, G:0, P:0 Score:4.736823 Estates: 3&#45;&gt;14Copper Score:4.499010 Estates: 3 -->
<g id="edge5" class="edge"><title>3C:3, E:2, S:0, D:0, G:0, P:0 Score:4.736823 Estates: 3&#45;&gt;14Copper Score:4.499010 Estates: 3</title>
<path fill="none" stroke="black" d="M987.693,-649.94C913.253,-638.178 810.277,-621.906 735.729,-610.127"/>
<polygon fill="black" stroke="black" points="735.829,-606.599 725.405,-608.495 734.736,-613.513 735.829,-606.599"/>
</g>
<!-- 15Silver Score:4.656827 Estates: 3 -->
<g id="node7" class="node"><title>15Silver Score:4.656827 Estates: 3</title>
<ellipse fill="#b2dfee" stroke="#b2dfee" cx="937" cy="-594" rx="135.258" ry="18"/>
<text text-anchor="middle" x="937" y="-590.3" font-family="Times New Roman,serif" font-size="14.00">15Silver Score:4.656827 Estates: 3</text>
</g>
<!-- 3C:3, E:2, S:0, D:0, G:0, P:0 Score:4.736823 Estates: 3&#45;&gt;15Silver Score:4.656827 Estates: 3 -->
<g id="edge6" class="edge"><title>3C:3, E:2, S:0, D:0, G:0, P:0 Score:4.736823 Estates: 3&#45;&gt;15Silver Score:4.656827 Estates: 3</title>
<path fill="none" stroke="black" d="M1048.03,-648.233C1027.82,-638.544 1002.22,-626.269 980.691,-615.948"/>
<polygon fill="black" stroke="black" points="981.963,-612.676 971.433,-611.509 978.937,-618.988 981.963,-612.676"/>
</g>
<!-- 16Estate Score:5.340493 Estates: 4 -->
<g id="node8" class="node"><title>16Estate Score:5.340493 Estates: 4</title>
<ellipse fill="#b2dfee" stroke="#b2dfee" cx="1229" cy="-594" rx="137.183" ry="18"/>
<text text-anchor="middle" x="1229" y="-590.3" font-family="Times New Roman,serif" font-size="14.00">16Estate Score:5.340493 Estates: 4</text>
</g>
<!-- 3C:3, E:2, S:0, D:0, G:0, P:0 Score:4.736823 Estates: 3&#45;&gt;16Estate Score:5.340493 Estates: 4 -->
<g id="edge7" class="edge"><title>3C:3, E:2, S:0, D:0, G:0, P:0 Score:4.736823 Estates: 3&#45;&gt;16Estate Score:5.340493 Estates: 4</title>
<path fill="none" stroke="black" d="M1117.97,-648.233C1138.18,-638.544 1163.78,-626.269 1185.31,-615.948"/>
<polygon fill="black" stroke="black" points="1187.06,-618.988 1194.57,-611.509 1184.04,-612.676 1187.06,-618.988"/>
</g>
<!-- 17Nothing Score:4.450962 Estates: 3 -->
<g id="node9" class="node"><title>17Nothing Score:4.450962 Estates: 3</title>
<ellipse fill="#b2dfee" stroke="#b2dfee" cx="1529" cy="-594" rx="143.931" ry="18"/>
<text text-anchor="middle" x="1529" y="-590.3" font-family="Times New Roman,serif" font-size="14.00">17Nothing Score:4.450962 Estates: 3</text>
</g>
<!-- 3C:3, E:2, S:0, D:0, G:0, P:0 Score:4.736823 Estates: 3&#45;&gt;17Nothing Score:4.450962 Estates: 3 -->
<g id="edge8" class="edge"><title>3C:3, E:2, S:0, D:0, G:0, P:0 Score:4.736823 Estates: 3&#45;&gt;17Nothing Score:4.450962 Estates: 3</title>
<path fill="none" stroke="black" d="M1178.68,-649.983C1253.76,-638.199 1357.79,-621.871 1432.97,-610.073"/>
<polygon fill="black" stroke="black" points="1433.57,-613.52 1442.91,-608.512 1432.49,-606.605 1433.57,-613.52"/>
</g>
<!-- 32C:4, E:1, S:0, D:0, G:0, P:0 Score:5.340493 Estates: 4 -->
<g id="node10" class="node"><title>32C:4, E:1, S:0, D:0, G:0, P:0 Score:5.340493 Estates: 4</title>
<ellipse fill="#b2dfee" stroke="#b2dfee" cx="1229" cy="-522" rx="213.247" ry="18"/>
<text text-anchor="middle" x="1229" y="-518.3" font-family="Times New Roman,serif" font-size="14.00">32C:4, E:1, S:0, D:0, G:0, P:0 Score:5.340493 Estates: 4</text>
</g>
<!-- 16Estate Score:5.340493 Estates: 4&#45;&gt;32C:4, E:1, S:0, D:0, G:0, P:0 Score:5.340493 Estates: 4 -->
<g id="edge9" class="edge"><title>16Estate Score:5.340493 Estates: 4&#45;&gt;32C:4, E:1, S:0, D:0, G:0, P:0 Score:5.340493 Estates: 4</title>
<path fill="none" stroke="black" d="M1229,-575.697C1229,-567.983 1229,-558.712 1229,-550.112"/>
<polygon fill="black" stroke="black" points="1232.5,-550.104 1229,-540.104 1225.5,-550.104 1232.5,-550.104"/>
</g>
<!-- 76Copper Score:5.093396 Estates: 4 -->
<g id="node11" class="node"><title>76Copper Score:5.093396 Estates: 4</title>
<ellipse fill="#b2dfee" stroke="#b2dfee" cx="786" cy="-450" rx="143.456" ry="18"/>
<text text-anchor="middle" x="786" y="-446.3" font-family="Times New Roman,serif" font-size="14.00">76Copper Score:5.093396 Estates: 4</text>
</g>
<!-- 32C:4, E:1, S:0, D:0, G:0, P:0 Score:5.340493 Estates: 4&#45;&gt;76Copper Score:5.093396 Estates: 4 -->
<g id="edge10" class="edge"><title>32C:4, E:1, S:0, D:0, G:0, P:0 Score:5.340493 Estates: 4&#45;&gt;76Copper Score:5.093396 Estates: 4</title>
<path fill="none" stroke="black" d="M1133.42,-505.897C1058.96,-494.132 956.079,-477.875 881.613,-466.108"/>
<polygon fill="black" stroke="black" points="881.723,-462.582 871.3,-464.478 880.631,-469.496 881.723,-462.582"/>
</g>
<!-- 77Silver Score:5.273407 Estates: 4 -->
<g id="node12" class="node"><title>77Silver Score:5.273407 Estates: 4</title>
<ellipse fill="#b2dfee" stroke="#b2dfee" cx="1083" cy="-450" rx="135.258" ry="18"/>
<text text-anchor="middle" x="1083" y="-446.3" font-family="Times New Roman,serif" font-size="14.00">77Silver Score:5.273407 Estates: 4</text>
</g>
<!-- 32C:4, E:1, S:0, D:0, G:0, P:0 Score:5.340493 Estates: 4&#45;&gt;77Silver Score:5.273407 Estates: 4 -->
<g id="edge11" class="edge"><title>32C:4, E:1, S:0, D:0, G:0, P:0 Score:5.340493 Estates: 4&#45;&gt;77Silver Score:5.273407 Estates: 4</title>
<path fill="none" stroke="black" d="M1194.03,-504.233C1173.82,-494.544 1148.22,-482.269 1126.69,-471.948"/>
<polygon fill="black" stroke="black" points="1127.96,-468.676 1117.43,-467.509 1124.94,-474.988 1127.96,-468.676"/>
</g>
<!-- 78Estate Score:5.968453 Estates: 5 -->
<g id="node13" class="node"><title>78Estate Score:5.968453 Estates: 5</title>
<ellipse fill="#b2dfee" stroke="#b2dfee" cx="1375" cy="-450" rx="137.183" ry="18"/>
<text text-anchor="middle" x="1375" y="-446.3" font-family="Times New Roman,serif" font-size="14.00">78Estate Score:5.968453 Estates: 5</text>
</g>
<!-- 32C:4, E:1, S:0, D:0, G:0, P:0 Score:5.340493 Estates: 4&#45;&gt;78Estate Score:5.968453 Estates: 5 -->
<g id="edge12" class="edge"><title>32C:4, E:1, S:0, D:0, G:0, P:0 Score:5.340493 Estates: 4&#45;&gt;78Estate Score:5.968453 Estates: 5</title>
<path fill="none" stroke="black" d="M1263.97,-504.233C1284.18,-494.544 1309.78,-482.269 1331.31,-471.948"/>
<polygon fill="black" stroke="black" points="1333.06,-474.988 1340.57,-467.509 1330.04,-468.676 1333.06,-474.988"/>
</g>
<!-- 79Nothing Score:5.026714 Estates: 4 -->
<g id="node14" class="node"><title>79Nothing Score:5.026714 Estates: 4</title>
<ellipse fill="#b2dfee" stroke="#b2dfee" cx="1675" cy="-450" rx="143.931" ry="18"/>
<text text-anchor="middle" x="1675" y="-446.3" font-family="Times New Roman,serif" font-size="14.00">79Nothing Score:5.026714 Estates: 4</text>
</g>
<!-- 32C:4, E:1, S:0, D:0, G:0, P:0 Score:5.340493 Estates: 4&#45;&gt;79Nothing Score:5.026714 Estates: 4 -->
<g id="edge13" class="edge"><title>32C:4, E:1, S:0, D:0, G:0, P:0 Score:5.340493 Estates: 4&#45;&gt;79Nothing Score:5.026714 Estates: 4</title>
<path fill="none" stroke="black" d="M1325.23,-505.897C1400.34,-494.108 1504.19,-477.808 1579.2,-466.036"/>
<polygon fill="black" stroke="black" points="1579.79,-469.487 1589.12,-464.478 1578.7,-462.571 1579.79,-469.487"/>
</g>
<!-- 373C:5, E:0, S:0, D:0, G:0, P:0 Score:6.175040 Estates: 5 -->
<g id="node15" class="node"><title>373C:5, E:0, S:0, D:0, G:0, P:0 Score:6.175040 Estates: 5</title>
<ellipse fill="#b2dfee" stroke="#b2dfee" cx="242" cy="-378" rx="217.596" ry="18"/>
<text text-anchor="middle" x="242" y="-374.3" font-family="Times New Roman,serif" font-size="14.00">373C:5, E:0, S:0, D:0, G:0, P:0 Score:6.175040 Estates: 5</text>
</g>
<!-- 78Estate Score:5.968453 Estates: 5&#45;&gt;373C:5, E:0, S:0, D:0, G:0, P:0 Score:6.175040 Estates: 5 -->
<g id="edge14" class="edge"><title>78Estate Score:5.968453 Estates: 5&#45;&gt;373C:5, E:0, S:0, D:0, G:0, P:0 Score:6.175040 Estates: 5</title>
<path fill="none" stroke="black" d="M1279.16,-437.043C1261.82,-435.15 1243.89,-433.369 1227,-432 890.391,-404.716 805.08,-416.668 468,-396 447.149,-394.722 425.226,-393.242 403.573,-391.7"/>
<polygon fill="black" stroke="black" points="403.536,-388.189 393.311,-390.963 403.035,-395.171 403.536,-388.189"/>
</g>
<!-- 374C:4, E:1, S:0, D:0, G:0, P:0 Score:5.722240 Estates: 5 -->
<g id="node16" class="node"><title>374C:4, E:1, S:0, D:0, G:0, P:0 Score:5.722240 Estates: 5</title>
<ellipse fill="#b2dfee" stroke="#b2dfee" cx="695" cy="-378" rx="217.596" ry="18"/>
<text text-anchor="middle" x="695" y="-374.3" font-family="Times New Roman,serif" font-size="14.00">374C:4, E:1, S:0, D:0, G:0, P:0 Score:5.722240 Estates: 5</text>
</g>
<!-- 78Estate Score:5.968453 Estates: 5&#45;&gt;374C:4, E:1, S:0, D:0, G:0, P:0 Score:5.722240 Estates: 5 -->
<g id="edge15" class="edge"><title>78Estate Score:5.968453 Estates: 5&#45;&gt;374C:4, E:1, S:0, D:0, G:0, P:0 Score:5.722240 Estates: 5</title>
<path fill="none" stroke="black" d="M1276.31,-437.454C1259.85,-435.589 1242.94,-433.71 1227,-432 1096.8,-418.038 948.545,-403.369 841.669,-393.012"/>
<polygon fill="black" stroke="black" points="841.748,-389.504 831.457,-392.024 841.073,-396.471 841.748,-389.504"/>
</g>
<!-- 375C:3, E:2, S:0, D:0, G:0, P:0 Score:5.813584 Estates: 5 -->
<g id="node17" class="node"><title>375C:3, E:2, S:0, D:0, G:0, P:0 Score:5.813584 Estates: 5</title>
<ellipse fill="#b2dfee" stroke="#b2dfee" cx="1148" cy="-378" rx="217.596" ry="18"/>
<text text-anchor="middle" x="1148" y="-374.3" font-family="Times New Roman,serif" font-size="14.00">375C:3, E:2, S:0, D:0, G:0, P:0 Score:5.813584 Estates: 5</text>
</g>
<!-- 78Estate Score:5.968453 Estates: 5&#45;&gt;375C:3, E:2, S:0, D:0, G:0, P:0 Score:5.813584 Estates: 5 -->
<g id="edge16" class="edge"><title>78Estate Score:5.968453 Estates: 5&#45;&gt;375C:3, E:2, S:0, D:0, G:0, P:0 Score:5.813584 Estates: 5</title>
<path fill="none" stroke="black" d="M1323.77,-433.203C1290.43,-422.92 1246.69,-409.433 1211.19,-398.485"/>
<polygon fill="black" stroke="black" points="1212,-395.072 1201.41,-395.469 1209.93,-401.761 1212,-395.072"/>
</g>
<!-- 376C:2, E:3, S:0, D:0, G:0, P:0 Score:6.037500 Estates: 5 -->
<g id="node18" class="node"><title>376C:2, E:3, S:0, D:0, G:0, P:0 Score:6.037500 Estates: 5</title>
<ellipse fill="#b2dfee" stroke="#b2dfee" cx="1601" cy="-378" rx="217.596" ry="18"/>
<text text-anchor="middle" x="1601" y="-374.3" font-family="Times New Roman,serif" font-size="14.00">376C:2, E:3, S:0, D:0, G:0, P:0 Score:6.037500 Estates: 5</text>
</g>
<!-- 78Estate Score:5.968453 Estates: 5&#45;&gt;376C:2, E:3, S:0, D:0, G:0, P:0 Score:6.037500 Estates: 5 -->
<g id="edge17" class="edge"><title>78Estate Score:5.968453 Estates: 5&#45;&gt;376C:2, E:3, S:0, D:0, G:0, P:0 Score:6.037500 Estates: 5</title>
<path fill="none" stroke="black" d="M1426,-433.203C1459.2,-422.92 1502.75,-409.433 1538.09,-398.485"/>
<polygon fill="black" stroke="black" points="1539.31,-401.771 1547.83,-395.469 1537.24,-395.085 1539.31,-401.771"/>
</g>
<!-- 377C:1, E:4, S:0, D:0, G:0, P:0 Score:5.851161 Estates: 5 -->
<g id="node19" class="node"><title>377C:1, E:4, S:0, D:0, G:0, P:0 Score:5.851161 Estates: 5</title>
<ellipse fill="#b2dfee" stroke="#b2dfee" cx="2054" cy="-378" rx="217.596" ry="18"/>
<text text-anchor="middle" x="2054" y="-374.3" font-family="Times New Roman,serif" font-size="14.00">377C:1, E:4, S:0, D:0, G:0, P:0 Score:5.851161 Estates: 5</text>
</g>
<!-- 78Estate Score:5.968453 Estates: 5&#45;&gt;377C:1, E:4, S:0, D:0, G:0, P:0 Score:5.851161 Estates: 5 -->
<g id="edge18" class="edge"><title>78Estate Score:5.968453 Estates: 5&#45;&gt;377C:1, E:4, S:0, D:0, G:0, P:0 Score:5.851161 Estates: 5</title>
<path fill="none" stroke="black" d="M1473.42,-437.4C1489.65,-435.55 1506.29,-433.691 1522,-432 1652.08,-418 1800.2,-403.349 1907.05,-393.009"/>
<polygon fill="black" stroke="black" points="1907.65,-396.468 1917.26,-392.022 1906.97,-389.5 1907.65,-396.468"/>
</g>
<!-- 378C:0, E:5, S:0, D:0, G:0, P:0 Score:6.211190 Estates: 5 -->
<g id="node20" class="node"><title>378C:0, E:5, S:0, D:0, G:0, P:0 Score:6.211190 Estates: 5</title>
<ellipse fill="#b2dfee" stroke="#b2dfee" cx="2507" cy="-378" rx="217.596" ry="18"/>
<text text-anchor="middle" x="2507" y="-374.3" font-family="Times New Roman,serif" font-size="14.00">378C:0, E:5, S:0, D:0, G:0, P:0 Score:6.211190 Estates: 5</text>
</g>
<!-- 78Estate Score:5.968453 Estates: 5&#45;&gt;378C:0, E:5, S:0, D:0, G:0, P:0 Score:6.211190 Estates: 5 -->
<g id="edge19" class="edge"><title>78Estate Score:5.968453 Estates: 5&#45;&gt;378C:0, E:5, S:0, D:0, G:0, P:0 Score:6.211190 Estates: 5</title>
<path fill="none" stroke="black" d="M1470.59,-436.996C1487.69,-435.119 1505.36,-433.356 1522,-432 1858.15,-404.612 1943.36,-416.596 2280,-396 2301.12,-394.708 2323.34,-393.212 2345.27,-391.655"/>
<polygon fill="black" stroke="black" points="2345.6,-395.141 2355.32,-390.936 2345.1,-388.159 2345.6,-395.141"/>
</g>
<!-- 1606Copper Score:5.544692 Estates: 5 -->
<g id="node21" class="node"><title>1606Copper Score:5.544692 Estates: 5</title>
<ellipse fill="#b2dfee" stroke="#b2dfee" cx="678" cy="-306" rx="152.13" ry="18"/>
<text text-anchor="middle" x="678" y="-302.3" font-family="Times New Roman,serif" font-size="14.00">1606Copper Score:5.544692 Estates: 5</text>
</g>
<!-- 375C:3, E:2, S:0, D:0, G:0, P:0 Score:5.813584 Estates: 5&#45;&gt;1606Copper Score:5.544692 Estates: 5 -->
<g id="edge20" class="edge"><title>375C:3, E:2, S:0, D:0, G:0, P:0 Score:5.813584 Estates: 5&#45;&gt;1606Copper Score:5.544692 Estates: 5</title>
<path fill="none" stroke="black" d="M1047.46,-362.026C968.07,-350.202 857.822,-333.782 778.453,-321.961"/>
<polygon fill="black" stroke="black" points="778.85,-318.482 768.443,-320.47 777.818,-325.405 778.85,-318.482"/>
</g>
<!-- 1607Silver Score:5.620260 Estates: 5 -->
<g id="node22" class="node"><title>1607Silver Score:5.620260 Estates: 5</title>
<ellipse fill="#b2dfee" stroke="#b2dfee" cx="993" cy="-306" rx="144.406" ry="18"/>
<text text-anchor="middle" x="993" y="-302.3" font-family="Times New Roman,serif" font-size="14.00">1607Silver Score:5.620260 Estates: 5</text>
</g>
<!-- 375C:3, E:2, S:0, D:0, G:0, P:0 Score:5.813584 Estates: 5&#45;&gt;1607Silver Score:5.620260 Estates: 5 -->
<g id="edge21" class="edge"><title>375C:3, E:2, S:0, D:0, G:0, P:0 Score:5.813584 Estates: 5&#45;&gt;1607Silver Score:5.620260 Estates: 5</title>
<path fill="none" stroke="black" d="M1110.87,-360.233C1089.23,-350.457 1061.75,-338.048 1038.77,-327.671"/>
<polygon fill="black" stroke="black" points="1040.11,-324.435 1029.56,-323.509 1037.23,-330.815 1040.11,-324.435"/>
</g>
<!-- 1608Estate Score:6.544692 Estates: 6 -->
<g id="node23" class="node"><title>1608Estate Score:6.544692 Estates: 6</title>
<ellipse fill="#b2dfee" stroke="#b2dfee" cx="1302" cy="-306" rx="146.356" ry="18"/>
<text text-anchor="middle" x="1302" y="-302.3" font-family="Times New Roman,serif" font-size="14.00">1608Estate Score:6.544692 Estates: 6</text>
</g>
<!-- 375C:3, E:2, S:0, D:0, G:0, P:0 Score:5.813584 Estates: 5&#45;&gt;1608Estate Score:6.544692 Estates: 6 -->
<g id="edge22" class="edge"><title>375C:3, E:2, S:0, D:0, G:0, P:0 Score:5.813584 Estates: 5&#45;&gt;1608Estate Score:6.544692 Estates: 6</title>
<path fill="none" stroke="black" d="M1184.89,-360.233C1206.39,-350.457 1233.69,-338.048 1256.52,-327.671"/>
<polygon fill="black" stroke="black" points="1258.02,-330.833 1265.68,-323.509 1255.13,-324.461 1258.02,-330.833"/>
</g>
<!-- 1609Nothing Score:5.544692 Estates: 5 -->
<g id="node24" class="node"><title>1609Nothing Score:5.544692 Estates: 5</title>
<ellipse fill="#b2dfee" stroke="#b2dfee" cx="1620" cy="-306" rx="153.08" ry="18"/>
<text text-anchor="middle" x="1620" y="-302.3" font-family="Times New Roman,serif" font-size="14.00">1609Nothing Score:5.544692 Estates: 5</text>
</g>
<!-- 375C:3, E:2, S:0, D:0, G:0, P:0 Score:5.813584 Estates: 5&#45;&gt;1609Nothing Score:5.544692 Estates: 5 -->
<g id="edge23" class="edge"><title>375C:3, E:2, S:0, D:0, G:0, P:0 Score:5.813584 Estates: 5&#45;&gt;1609Nothing Score:5.544692 Estates: 5</title>
<path fill="none" stroke="black" d="M1248.97,-362.026C1328.57,-350.221 1439.05,-333.835 1518.73,-322.019"/>
<polygon fill="black" stroke="black" points="1519.4,-325.458 1528.78,-320.528 1518.37,-318.533 1519.4,-325.458"/>
</g>
<!-- 5200C:4, E:1, S:0, D:0, G:0, P:0 Score:6.409970 Estates: 6 -->
<g id="node25" class="node"><title>5200C:4, E:1, S:0, D:0, G:0, P:0 Score:6.409970 Estates: 6</title>
<ellipse fill="#b2dfee" stroke="#b2dfee" cx="839" cy="-234" rx="221.921" ry="18"/>
<text text-anchor="middle" x="839" y="-230.3" font-family="Times New Roman,serif" font-size="14.00">5200C:4, E:1, S:0, D:0, G:0, P:0 Score:6.409970 Estates: 6</text>
</g>
<!-- 1608Estate Score:6.544692 Estates: 6&#45;&gt;5200C:4, E:1, S:0, D:0, G:0, P:0 Score:6.409970 Estates: 6 -->
<g id="edge24" class="edge"><title>1608Estate Score:6.544692 Estates: 6&#45;&gt;5200C:4, E:1, S:0, D:0, G:0, P:0 Score:6.409970 Estates: 6</title>
<path fill="none" stroke="black" d="M1213.55,-291.627C1138.29,-280.249 1029.85,-263.855 949.004,-251.631"/>
<polygon fill="black" stroke="black" points="949.198,-248.121 938.787,-250.087 948.151,-255.042 949.198,-248.121"/>
</g>
<!-- 5201C:3, E:2, S:0, D:0, G:0, P:0 Score:6.482440 Estates: 6 -->
<g id="node26" class="node"><title>5201C:3, E:2, S:0, D:0, G:0, P:0 Score:6.482440 Estates: 6</title>
<ellipse fill="#b2dfee" stroke="#b2dfee" cx="1302" cy="-234" rx="221.921" ry="18"/>
<text text-anchor="middle" x="1302" y="-230.3" font-family="Times New Roman,serif" font-size="14.00">5201C:3, E:2, S:0, D:0, G:0, P:0 Score:6.482440 Estates: 6</text>
</g>
<!-- 1608Estate Score:6.544692 Estates: 6&#45;&gt;5201C:3, E:2, S:0, D:0, G:0, P:0 Score:6.482440 Estates: 6 -->
<g id="edge25" class="edge"><title>1608Estate Score:6.544692 Estates: 6&#45;&gt;5201C:3, E:2, S:0, D:0, G:0, P:0 Score:6.482440 Estates: 6</title>
<path fill="none" stroke="black" d="M1302,-287.697C1302,-279.983 1302,-270.712 1302,-262.112"/>
<polygon fill="black" stroke="black" points="1305.5,-262.104 1302,-252.104 1298.5,-262.104 1305.5,-262.104"/>
</g>
<!-- 5202C:2, E:3, S:0, D:0, G:0, P:0 Score:6.741667 Estates: 6 -->
<g id="node27" class="node"><title>5202C:2, E:3, S:0, D:0, G:0, P:0 Score:6.741667 Estates: 6</title>
<ellipse fill="#b2dfee" stroke="#b2dfee" cx="1765" cy="-234" rx="221.921" ry="18"/>
<text text-anchor="middle" x="1765" y="-230.3" font-family="Times New Roman,serif" font-size="14.00">5202C:2, E:3, S:0, D:0, G:0, P:0 Score:6.741667 Estates: 6</text>
</g>
<!-- 1608Estate Score:6.544692 Estates: 6&#45;&gt;5202C:2, E:3, S:0, D:0, G:0, P:0 Score:6.741667 Estates: 6 -->
<g id="edge26" class="edge"><title>1608Estate Score:6.544692 Estates: 6&#45;&gt;5202C:2, E:3, S:0, D:0, G:0, P:0 Score:6.741667 Estates: 6</title>
<path fill="none" stroke="black" d="M1390.45,-291.627C1465.71,-280.249 1574.15,-263.855 1655,-251.631"/>
<polygon fill="black" stroke="black" points="1655.85,-255.042 1665.21,-250.087 1654.8,-248.121 1655.85,-255.042"/>
</g>
<!-- 19114Copper Score:6.208333 Estates: 6 -->
<g id="node28" class="node"><title>19114Copper Score:6.208333 Estates: 6</title>
<ellipse fill="#b2dfee" stroke="#b2dfee" cx="819" cy="-162" rx="156.454" ry="18"/>
<text text-anchor="middle" x="819" y="-158.3" font-family="Times New Roman,serif" font-size="14.00">19114Copper Score:6.208333 Estates: 6</text>
</g>
<!-- 5201C:3, E:2, S:0, D:0, G:0, P:0 Score:6.482440 Estates: 6&#45;&gt;19114Copper Score:6.208333 Estates: 6 -->
<g id="edge27" class="edge"><title>5201C:3, E:2, S:0, D:0, G:0, P:0 Score:6.482440 Estates: 6&#45;&gt;19114Copper Score:6.208333 Estates: 6</title>
<path fill="none" stroke="black" d="M1198.68,-218.026C1117.23,-206.221 1004.16,-189.835 922.63,-178.019"/>
<polygon fill="black" stroke="black" points="922.745,-174.499 912.346,-176.528 921.741,-181.427 922.745,-174.499"/>
</g>
<!-- 19115Silver Score:6.304762 Estates: 6 -->
<g id="node29" class="node"><title>19115Silver Score:6.304762 Estates: 6</title>
<ellipse fill="#b2dfee" stroke="#b2dfee" cx="1143" cy="-162" rx="149.23" ry="18"/>
<text text-anchor="middle" x="1143" y="-158.3" font-family="Times New Roman,serif" font-size="14.00">19115Silver Score:6.304762 Estates: 6</text>
</g>
<!-- 5201C:3, E:2, S:0, D:0, G:0, P:0 Score:6.482440 Estates: 6&#45;&gt;19115Silver Score:6.304762 Estates: 6 -->
<g id="edge28" class="edge"><title>5201C:3, E:2, S:0, D:0, G:0, P:0 Score:6.482440 Estates: 6&#45;&gt;19115Silver Score:6.304762 Estates: 6</title>
<path fill="none" stroke="black" d="M1263.92,-216.233C1241.71,-206.457 1213.52,-194.048 1189.95,-183.671"/>
<polygon fill="black" stroke="black" points="1191.06,-180.335 1180.5,-179.509 1188.24,-186.742 1191.06,-180.335"/>
</g>
<!-- 19116Estate Score:7.208333 Estates: 7 -->
<g id="node30" class="node"><title>19116Estate Score:7.208333 Estates: 7</title>
<ellipse fill="#b2dfee" stroke="#b2dfee" cx="1461" cy="-162" rx="150.181" ry="18"/>
<text text-anchor="middle" x="1461" y="-158.3" font-family="Times New Roman,serif" font-size="14.00">19116Estate Score:7.208333 Estates: 7</text>
</g>
<!-- 5201C:3, E:2, S:0, D:0, G:0, P:0 Score:6.482440 Estates: 6&#45;&gt;19116Estate Score:7.208333 Estates: 7 -->
<g id="edge29" class="edge"><title>5201C:3, E:2, S:0, D:0, G:0, P:0 Score:6.482440 Estates: 6&#45;&gt;19116Estate Score:7.208333 Estates: 7</title>
<path fill="none" stroke="black" d="M1340.08,-216.233C1362.29,-206.457 1390.48,-194.048 1414.05,-183.671"/>
<polygon fill="black" stroke="black" points="1415.76,-186.742 1423.5,-179.509 1412.94,-180.335 1415.76,-186.742"/>
</g>
<!-- 19117Nothing Score:6.208333 Estates: 6 -->
<g id="node31" class="node"><title>19117Nothing Score:6.208333 Estates: 6</title>
<ellipse fill="#b2dfee" stroke="#b2dfee" cx="1787" cy="-162" rx="156.93" ry="18"/>
<text text-anchor="middle" x="1787" y="-158.3" font-family="Times New Roman,serif" font-size="14.00">19117Nothing Score:6.208333 Estates: 6</text>
</g>
<!-- 5201C:3, E:2, S:0, D:0, G:0, P:0 Score:6.482440 Estates: 6&#45;&gt;19117Nothing Score:6.208333 Estates: 6 -->
<g id="edge30" class="edge"><title>5201C:3, E:2, S:0, D:0, G:0, P:0 Score:6.482440 Estates: 6&#45;&gt;19117Nothing Score:6.208333 Estates: 6</title>
<path fill="none" stroke="black" d="M1405.45,-218.069C1487.44,-206.236 1601.46,-189.78 1683.47,-177.943"/>
<polygon fill="black" stroke="black" points="1684.16,-181.38 1693.56,-176.487 1683.16,-174.451 1684.16,-181.38"/>
</g>
<!-- 121310C:4, E:1, S:0, D:0, G:0, P:0 Score:7.250000 Estates: 7 -->
<g id="node32" class="node"><title>121310C:4, E:1, S:0, D:0, G:0, P:0 Score:7.250000 Estates: 7</title>
<ellipse fill="#b2dfee" stroke="#b2dfee" cx="739" cy="-90" rx="231.069" ry="18"/>
<text text-anchor="middle" x="739" y="-86.3" font-family="Times New Roman,serif" font-size="14.00">121310C:4, E:1, S:0, D:0, G:0, P:0 Score:7.250000 Estates: 7</text>
</g>
<!-- 19116Estate Score:7.208333 Estates: 7&#45;&gt;121310C:4, E:1, S:0, D:0, G:0, P:0 Score:7.250000 Estates: 7 -->
<g id="edge31" class="edge"><title>19116Estate Score:7.208333 Estates: 7&#45;&gt;121310C:4, E:1, S:0, D:0, G:0, P:0 Score:7.250000 Estates: 7</title>
<path fill="none" stroke="black" d="M1353.44,-149.395C1335.91,-147.555 1317.95,-145.7 1301,-144 1163.04,-130.166 1005.92,-115.435 892.95,-105.024"/>
<polygon fill="black" stroke="black" points="893.123,-101.525 882.844,-104.093 892.481,-108.496 893.123,-101.525"/>
</g>
<!-- 121311C:3, E:2, S:0, D:0, G:0, P:0 Score:7.250000 Estates: 7 -->
<g id="node33" class="node"><title>121311C:3, E:2, S:0, D:0, G:0, P:0 Score:7.250000 Estates: 7</title>
<ellipse fill="#b2dfee" stroke="#b2dfee" cx="1220" cy="-90" rx="231.069" ry="18"/>
<text text-anchor="middle" x="1220" y="-86.3" font-family="Times New Roman,serif" font-size="14.00">121311C:3, E:2, S:0, D:0, G:0, P:0 Score:7.250000 Estates: 7</text>
</g>
<!-- 19116Estate Score:7.208333 Estates: 7&#45;&gt;121311C:3, E:2, S:0, D:0, G:0, P:0 Score:7.250000 Estates: 7 -->
<g id="edge32" class="edge"><title>19116Estate Score:7.208333 Estates: 7&#45;&gt;121311C:3, E:2, S:0, D:0, G:0, P:0 Score:7.250000 Estates: 7</title>
<path fill="none" stroke="black" d="M1406.61,-145.203C1371.06,-134.876 1324.38,-121.318 1286.6,-110.345"/>
<polygon fill="black" stroke="black" points="1287.28,-106.898 1276.7,-107.469 1285.33,-113.62 1287.28,-106.898"/>
</g>
<!-- 121312C:2, E:3, S:0, D:0, G:0, P:0 Score:7.333333 Estates: 7 -->
<g id="node34" class="node"><title>121312C:2, E:3, S:0, D:0, G:0, P:0 Score:7.333333 Estates: 7</title>
<ellipse fill="#b2dfee" stroke="#b2dfee" cx="1701" cy="-90" rx="231.069" ry="18"/>
<text text-anchor="middle" x="1701" y="-86.3" font-family="Times New Roman,serif" font-size="14.00">121312C:2, E:3, S:0, D:0, G:0, P:0 Score:7.333333 Estates: 7</text>
</g>
<!-- 19116Estate Score:7.208333 Estates: 7&#45;&gt;121312C:2, E:3, S:0, D:0, G:0, P:0 Score:7.333333 Estates: 7 -->
<g id="edge33" class="edge"><title>19116Estate Score:7.208333 Estates: 7&#45;&gt;121312C:2, E:3, S:0, D:0, G:0, P:0 Score:7.333333 Estates: 7</title>
<path fill="none" stroke="black" d="M1515.16,-145.203C1550.57,-134.876 1597.05,-121.318 1634.67,-110.345"/>
<polygon fill="black" stroke="black" points="1635.91,-113.629 1644.53,-107.469 1633.95,-106.909 1635.91,-113.629"/>
</g>
<!-- 121313C:1, E:4, S:0, D:0, G:0, P:0 Score:7.000000 Estates: 7 -->
<g id="node35" class="node"><title>121313C:1, E:4, S:0, D:0, G:0, P:0 Score:7.000000 Estates: 7</title>
<ellipse fill="#b2dfee" stroke="#b2dfee" cx="2182" cy="-90" rx="231.069" ry="18"/>
<text text-anchor="middle" x="2182" y="-86.3" font-family="Times New Roman,serif" font-size="14.00">121313C:1, E:4, S:0, D:0, G:0, P:0 Score:7.000000 Estates: 7</text>
</g>
<!-- 19116Estate Score:7.208333 Estates: 7&#45;&gt;121313C:1, E:4, S:0, D:0, G:0, P:0 Score:7.000000 Estates: 7 -->
<g id="edge34" class="edge"><title>19116Estate Score:7.208333 Estates: 7&#45;&gt;121313C:1, E:4, S:0, D:0, G:0, P:0 Score:7.000000 Estates: 7</title>
<path fill="none" stroke="black" d="M1568.56,-149.397C1586.09,-147.557 1604.05,-145.702 1621,-144 1758.6,-130.191 1915.29,-115.472 2028.03,-105.059"/>
<polygon fill="black" stroke="black" points="2028.49,-108.532 2038.12,-104.128 2027.84,-101.562 2028.49,-108.532"/>
</g>
<!-- 555426Copper Score:7.000000 Estates: 7 -->
<g id="node36" class="node"><title>555426Copper Score:7.000000 Estates: 7</title>
<ellipse fill="#b2dfee" stroke="#b2dfee" cx="1366" cy="-18" rx="161.279" ry="18"/>
<text text-anchor="middle" x="1366" y="-14.3" font-family="Times New Roman,serif" font-size="14.00">555426Copper Score:7.000000 Estates: 7</text>
</g>
<!-- 121312C:2, E:3, S:0, D:0, G:0, P:0 Score:7.333333 Estates: 7&#45;&gt;555426Copper Score:7.000000 Estates: 7 -->
<g id="edge35" class="edge"><title>121312C:2, E:3, S:0, D:0, G:0, P:0 Score:7.333333 Estates: 7&#45;&gt;555426Copper Score:7.000000 Estates: 7</title>
<path fill="none" stroke="black" d="M1624.14,-72.9406C1571.59,-61.9589 1502,-47.4172 1448.31,-36.1998"/>
<polygon fill="black" stroke="black" points="1448.99,-32.765 1438.48,-34.1455 1447.55,-39.617 1448.99,-32.765"/>
</g>
<!-- 555427Estate Score:8.000000 Estates: 8 -->
<g id="node37" class="node"><title>555427Estate Score:8.000000 Estates: 8</title>
<ellipse fill="#b2dfee" stroke="#b2dfee" cx="1701" cy="-18" rx="155.005" ry="18"/>
<text text-anchor="middle" x="1701" y="-14.3" font-family="Times New Roman,serif" font-size="14.00">555427Estate Score:8.000000 Estates: 8</text>
</g>
<!-- 121312C:2, E:3, S:0, D:0, G:0, P:0 Score:7.333333 Estates: 7&#45;&gt;555427Estate Score:8.000000 Estates: 8 -->
<g id="edge36" class="edge"><title>121312C:2, E:3, S:0, D:0, G:0, P:0 Score:7.333333 Estates: 7&#45;&gt;555427Estate Score:8.000000 Estates: 8</title>
<path fill="none" stroke="black" d="M1701,-71.6966C1701,-63.9827 1701,-54.7125 1701,-46.1124"/>
<polygon fill="black" stroke="black" points="1704.5,-46.1043 1701,-36.1043 1697.5,-46.1044 1704.5,-46.1043"/>
</g>
<!-- 555428Nothing Score:7.000000 Estates: 7 -->
<g id="node38" class="node"><title>555428Nothing Score:7.000000 Estates: 7</title>
<ellipse fill="#b2dfee" stroke="#b2dfee" cx="2036" cy="-18" rx="161.254" ry="18"/>
<text text-anchor="middle" x="2036" y="-14.3" font-family="Times New Roman,serif" font-size="14.00">555428Nothing Score:7.000000 Estates: 7</text>
</g>
<!-- 121312C:2, E:3, S:0, D:0, G:0, P:0 Score:7.333333 Estates: 7&#45;&gt;555428Nothing Score:7.000000 Estates: 7 -->
<g id="edge37" class="edge"><title>121312C:2, E:3, S:0, D:0, G:0, P:0 Score:7.333333 Estates: 7&#45;&gt;555428Nothing Score:7.000000 Estates: 7</title>
<path fill="none" stroke="black" d="M1777.86,-72.9406C1830.41,-61.9589 1900,-47.4172 1953.69,-36.1998"/>
<polygon fill="black" stroke="black" points="1954.45,-39.617 1963.52,-34.1455 1953.01,-32.765 1954.45,-39.617"/>
</g>
</g>
</svg>
